<svg xmlns="http://www.w3.org/2000/svg" viewBox="0 0 200 200" width="200" height="200">
  <!-- Background White Circle for Contrast / Transparency Safety -->
  <circle cx="100" cy="100" r="98" fill="#ffffff" />
  
  <!-- 1. Top-Left Blue Sector -->
  <path d="M 100 2 A 98 98 0 0 0 8 122 L 8 122 C 60 90, 94 40, 100 2 Z" fill="#0082cb" />

  <!-- 2. Top-Right Blue Sector -->
  <path d="M 100 2 A 98 98 0 0 1 192 122 L 192 122 C 140 90, 106 40, 100 2 Z" fill="#0082cb" />

  <!-- 3. Bottom-Left Blue Sector -->
  <path d="M 14 132 A 98 98 0 0 0 91 197.6 L 91 114 L 14 132 Z" fill="#0082cb" />

  <!-- 4. Bottom-Right Blue Sector -->
  <path d="M 109 114 L 109 197.6 A 98 98 0 0 0 186 132 L 109 114 Z" fill="#0082cb" />
</svg>
